<svg xmlns="http://www.w3.org/2000/svg" viewBox="0 0 512 512">
  <defs>
    <linearGradient id="g" x1="0" y1="0" x2="1" y2="1">
      <stop offset="0" stop-color="#7c5cff"/>
      <stop offset="1" stop-color="#35d3ff"/>
    </linearGradient>
    <filter id="s" x="-20%" y="-20%" width="140%" height="140%">
      <feDropShadow dx="0" dy="18" stdDeviation="18" flood-color="#000" flood-opacity="0.35"/>
    </filter>
  </defs>
  <rect x="48" y="48" width="416" height="416" rx="96" fill="#0b1220"/>
  <path d="M136 170c44-22 88-22 132 0 44-22 88-22 132 0v188c-44-22-88-22-132 0-44-22-88-22-132 0V170z"
        fill="url(#g)" filter="url(#s)"/>
  <path d="M268 178v188" stroke="#0b1220" stroke-width="10" opacity="0.55"/>
  <path d="M148 215c34-14 68-14 102 0" stroke="#0b1220" stroke-width="10" opacity="0.35" stroke-linecap="round"/>
  <path d="M286 215c34-14 68-14 102 0" stroke="#0b1220" stroke-width="10" opacity="0.35" stroke-linecap="round"/>
  <text x="256" y="408" text-anchor="middle" font-size="44" font-family="Vazirmatn, sans-serif" fill="#eaf2ff" opacity="0.92">تەفسیر</text>
</svg>
